<svg width="109" height="65" viewBox="0 0 109 65" fill="none" xmlns="http://www.w3.org/2000/svg">
<g clip-path="url(#clip0_1_343)">
<path d="M26.4856 12.4717L28.7829 19.2503H24.1227L26.4856 12.4717ZM21.5193 1.92967L11 30.8276H20.1767L21.605 26.6398H31.283L32.7075 30.8276H42.0845L31.5739 1.92967H21.5193Z" fill="white"/>
<path d="M87.6227 -0.000457764L84.7498 7.89535H90.3117L98.2075 -0.000457764H87.6227Z" fill="#EC1C24"/>
<path d="M99.0012 19.8133C99.0012 13.4125 95.0754 8.9816 88.2035 8.9816C81.8028 8.9816 77.0859 13.4062 77.0859 20.137C77.0859 26.7733 81.4589 31.2584 88.3295 31.2584C94.1131 31.2584 98.0881 28.2859 98.9383 22.9935H90.584C90.2225 24.0767 89.3598 24.5049 88.3257 24.5049C86.7728 24.5049 85.9251 23.6346 85.5951 21.831H99.0012V19.8133ZM85.784 17.948C86.1619 16.5852 86.9176 15.7363 88.1847 15.7363C89.4076 15.7363 90.2074 16.7439 90.3963 17.948H85.784Z" fill="white"/>
<path d="M76.1817 17.8351C75.1464 17.3653 74.2521 17.1764 72.9347 17.1764C70.9107 17.1764 69.7343 17.9774 69.4522 19.0656V30.8319H60.5097V9.46066H69.4522V11.2013C70.5857 9.88385 72.1349 8.98961 74.3466 8.98961C75.1942 8.98961 75.858 9.17853 76.1817 9.36746V17.8351Z" fill="white"/>
<path d="M58.798 17.8351C57.7627 17.3653 56.8672 17.1764 55.5498 17.1764C53.5258 17.1764 52.3494 17.9774 52.0673 19.0656V30.8319H43.1248V9.46066H52.0673V11.2013C53.2008 9.88385 54.75 8.98961 56.9617 8.98961C57.8093 8.98961 58.4731 9.17853 58.798 9.36746V17.8351Z" fill="white"/>
</g>
<rect y="36.4666" width="108.492" height="28.3285" rx="14.1642" fill="#4BC7B6"/>
<rect width="2.1428" height="11.4645" rx="1.0714" transform="matrix(1 0 0 -1 8.43753 56.2334)" fill="white"/>
<rect width="2.1428" height="4.39819" rx="1.0714" transform="matrix(1 0 0 -1 12.279 52.6228)" fill="white"/>
<rect width="2.1428" height="10.0035" rx="1.0714" transform="matrix(1 0 0 -1 16.132 55.533)" fill="white"/>
<rect width="2.1428" height="16.8891" rx="1.0714" transform="matrix(1 0 0 -1 19.9268 58.7805)" fill="white"/>
<rect width="2.13599" height="8.62045" rx="1.06799" transform="matrix(1 0 0 -1 23.7798 54.7328)" fill="white"/>
<path d="M40.3774 53.4931L44.5287 43.8153C44.8081 43.1693 45.297 42.8462 45.9955 42.8462H46.0217C46.5891 42.8462 47.03 43.0863 47.3443 43.5665C47.5277 43.8371 47.6193 44.1209 47.6193 44.4177C47.6193 44.6273 47.5713 44.8412 47.4753 45.0594L42.6168 56.4134C42.2152 57.4262 41.4731 57.9325 40.3905 57.9325C39.2904 57.9325 38.544 57.4262 38.1511 56.4134L33.2795 45.0594C33.1922 44.8412 33.1485 44.6316 33.1485 44.4308C33.1485 44.134 33.2402 43.8459 33.4235 43.5665C33.7378 43.0863 34.1787 42.8462 34.7462 42.8462H34.7855C35.4839 42.8462 35.9685 43.1693 36.2391 43.8153C38.3257 48.6957 39.5305 51.5069 39.8536 52.249C39.8536 52.2839 40.0282 52.6986 40.3774 53.4931Z" fill="white"/>
<path d="M56.1135 46.0809C54.9087 46.0809 53.8829 46.5043 53.036 47.3512C52.1979 48.198 51.7788 49.2239 51.7788 50.4287C51.7788 51.6248 52.1979 52.6462 53.036 53.4931C53.8829 54.3399 54.9087 54.7634 56.1135 54.7634C57.3096 54.7634 58.3311 54.3399 59.1779 53.4931C60.0248 52.6462 60.4482 51.6248 60.4482 50.4287C60.4482 49.2239 60.0248 48.198 59.1779 47.3512C58.3311 46.5043 57.3096 46.0809 56.1135 46.0809ZM56.1135 42.8462C58.1914 42.8462 59.968 43.584 61.4435 45.0594C62.9189 46.5349 63.6567 48.3115 63.6567 50.3894C63.6567 52.4673 62.9189 54.2439 61.4435 55.7194C59.968 57.1948 58.1914 57.9325 56.1135 57.9325C54.0356 57.9325 52.259 57.1948 50.7835 55.7194C49.3081 54.2439 48.5704 52.4673 48.5704 50.3894C48.5704 48.3115 49.3081 46.5349 50.7835 45.0594C52.259 43.584 54.0356 42.8462 56.1135 42.8462Z" fill="white"/>
<path d="M67.7376 42.8462C68.1828 42.8462 68.5539 43.0034 68.8507 43.3177C69.165 43.632 69.3221 44.0074 69.3221 44.4439V56.348C69.3221 56.7932 69.165 57.1643 68.8507 57.4611C68.5539 57.7754 68.1828 57.9325 67.7376 57.9325H67.7114C67.2748 57.9325 66.8994 57.7754 66.5851 57.4611C66.2708 57.1643 66.1137 56.7932 66.1137 56.348V44.4439C66.1137 44.0074 66.2708 43.632 66.5851 43.3177C66.8994 43.0034 67.2748 42.8462 67.7114 42.8462H67.7376Z" fill="white"/>
<path d="M79.3354 42.8462C80.1212 42.8462 80.8807 42.9641 81.6141 43.1998C82.3562 43.4355 82.7272 43.9419 82.7272 44.7189V44.7844C82.7272 45.317 82.5133 45.7404 82.0855 46.0547C81.7887 46.2642 81.4831 46.369 81.1688 46.369C81.0029 46.369 80.8327 46.3428 80.6581 46.2904C80.2303 46.1507 79.7894 46.0809 79.3354 46.0809C78.1306 46.0809 77.1048 46.5043 76.2579 47.3512C75.4198 48.198 75.0007 49.2239 75.0007 50.4287C75.0007 51.6248 75.4198 52.6462 76.2579 53.4931C77.1048 54.3399 78.1306 54.7634 79.3354 54.7634C79.7894 54.7634 80.2303 54.6935 80.6581 54.5538C80.824 54.5015 80.9899 54.4753 81.1557 54.4753C81.4788 54.4753 81.7887 54.58 82.0855 54.7896C82.5133 55.1039 82.7272 55.5317 82.7272 56.0729C82.7272 56.8412 82.3562 57.3476 81.6141 57.592C80.8807 57.819 80.1212 57.9325 79.3354 57.9325C77.2576 57.9325 75.4809 57.1948 74.0054 55.7194C72.53 54.2439 71.7923 52.4673 71.7923 50.3894C71.7923 48.3115 72.53 46.5349 74.0054 45.0594C75.4809 43.584 77.2576 42.8462 79.3354 42.8462Z" fill="white"/>
<path d="M93.5435 46.5153C92.4416 46.028 91.3321 46.0004 90.2151 46.4324C89.1061 46.8679 88.308 47.6366 87.8207 48.7385L87.7836 48.8224L95.8081 48.7769C95.528 47.8129 94.7731 47.0591 93.5435 46.5153ZM99.336 50.3513C99.3435 50.5933 99.3014 50.8181 99.2096 51.0257C99.1355 51.1933 99.0294 51.3469 98.8913 51.4863C98.5897 51.8016 98.2141 51.9601 97.7647 51.9618C96.4244 51.9705 94.6621 51.9835 92.4779 52.0009C89.7663 52.0236 88.1743 52.0403 87.7019 52.051C87.9697 53.0858 88.7464 53.8875 90.0319 54.456C90.8863 54.8338 91.772 54.9248 92.6891 54.729C93.5867 54.534 94.3443 54.1054 94.9618 53.4429C95.4829 52.8906 96.0908 52.768 96.7854 53.0752C97.2805 53.2941 97.5839 53.6765 97.6957 54.2224C97.7664 54.5591 97.7399 54.8672 97.6163 55.1466C97.5422 55.3143 97.4343 55.4719 97.2928 55.6193C96.2179 56.7763 94.9042 57.5127 93.3517 57.8285C91.7692 58.1692 90.2353 58.0112 88.7502 57.3544C86.8498 56.514 85.5233 55.1208 84.7707 53.1747C84.018 51.2285 84.0619 49.3053 84.9022 47.405C85.7426 45.5046 87.1358 44.1781 89.082 43.4255C91.0281 42.6728 92.9513 42.7166 94.8517 43.557C96.225 44.1643 97.3127 45.094 98.1146 46.3459C98.9156 47.5784 99.3227 48.9135 99.336 50.3513Z" fill="white"/>
<defs>
<clipPath id="clip0_1_343">
<rect width="88" height="31.2658" fill="white" transform="translate(11)"/>
</clipPath>
</defs>
</svg>
